<?xml version="1.0" encoding="UTF-8"?>
<svg width="120px" height="137px" viewBox="0 0 120 137" version="1.1" xmlns="http://www.w3.org/2000/svg" xmlns:xlink="http://www.w3.org/1999/xlink">
    <!-- Generator: Sketch 48.1 (47250) - http://www.bohemiancoding.com/sketch -->
    <title>Group 9</title>
    <desc>Created with Sketch.</desc>
    <defs>
        <polygon id="path-1" points="0.00132890365 0.166112957 119.602658 0.166112957 119.602658 136.677741 0.00132890365 136.677741"></polygon>
    </defs>
    <g id="01Landing" stroke="none" stroke-width="1" fill="none" fill-rule="evenodd" transform="translate(-300.000000, -2831.000000)">
        <g id="Group-9" transform="translate(300.000000, 2831.000000)">
            <g id="Group-5">
                <mask id="mask-2" fill="white">
                    <use xlink:href="#path-1"></use>
                </mask>
                <g id="Clip-4"></g>
                <path d="M60.3036545,6.78504983 C59.7289037,6.78504983 59.1641196,6.9345515 58.6657807,7.21694352 L8.3269103,35.7352159 C7.29036545,36.3232558 6.64584718,37.4328904 6.64584718,38.6255814 L6.64584718,97.3963455 C6.64584718,98.569103 7.27043189,99.6654485 8.28372093,100.260133 L58.117608,129.572425 C59.1342193,130.177076 60.4664452,130.177076 61.4830565,129.572425 L111.316944,100.260133 C112.330233,99.6654485 112.95814,98.569103 112.95814,97.3963455 L112.95814,38.5857143 C112.95814,37.4063123 112.320266,36.3033223 111.29701,35.7119601 L61.9647841,7.23023256 C61.4631229,6.93787375 60.8850498,6.78504983 60.3036545,6.78504983 M59.8019934,136.678738 C58.0245847,136.678738 56.2803987,136.200332 54.7488372,135.303322 L4.91495017,105.987708 C1.88504983,104.203654 0.00132890365,100.914618 0.00132890365,97.3963455 L0.00132890365,38.6255814 C0.00132890365,35.0408638 1.93820598,31.7186047 5.05116279,29.954485 L55.3900332,1.43621262 C58.4033223,-0.271428571 62.2803987,-0.258139535 65.2870432,1.47275748 L114.619269,29.9578073 C117.689037,31.7318937 119.602658,35.0375415 119.602658,38.5857143 L119.602658,97.3963455 C119.602658,100.914618 117.715615,104.203654 114.685714,105.987708 L64.8518272,135.303322 C63.3202658,136.200332 61.5760797,136.678738 59.8019934,136.678738" id="Fill-3" fill="#0B0B4E" mask="url(#mask-2)"></path>
            </g>
            <polygon id="1" fill="#0B0B4E" points="64.44 77.452 70.178 77.452 70.178 83 51.71 83 51.71 77.452 57.448 77.452 57.448 63.81 52.926 66.394 50.418 61.378 59.5 56.21 64.44 56.21"></polygon>
        </g>
    </g>
</svg>