<?xml version="1.0" encoding="UTF-8"?>
<svg width="120px" height="147px" viewBox="0 0 120 147" version="1.1" xmlns="http://www.w3.org/2000/svg" xmlns:xlink="http://www.w3.org/1999/xlink">
    <!-- Generator: Sketch 48.1 (47250) - http://www.bohemiancoding.com/sketch -->
    <title>Group</title>
    <desc>Created with Sketch.</desc>
    <defs>
        <polygon id="path-1" points="0 0.000312834992 119.999647 0.000312834992 119.999647 146.183294 0 146.183294"></polygon>
    </defs>
    <g id="01Landing" stroke="none" stroke-width="1" fill="none" fill-rule="evenodd" transform="translate(-300.000000, -3254.000000)">
        <g id="Group" transform="translate(300.000000, 3254.000000)">
            <g id="Page-1">
                <mask id="mask-2" fill="white">
                    <use xlink:href="#path-1"></use>
                </mask>
                <g id="Clip-2"></g>
                <path d="M60.0208235,8.00329412 C49.9302353,16.1244706 7.05847059,52.6044706 7.05847059,86.1832941 C7.05847059,115.378588 30.8078824,139.124471 59.9996471,139.124471 C89.1949412,139.124471 112.940824,115.378588 112.940824,86.1832941 C112.940824,51.9232941 70.1325882,16.008 60.0208235,8.00329412 M59.9996471,146.183294 C26.9149412,146.183294 -0.000352941176,119.268 -0.000352941176,86.1832941 C-0.000352941176,44.8009412 55.5137647,2.49035294 57.8784706,0.708 C59.1243529,-0.227294118 60.8431765,-0.237882353 62.0996471,0.690352941 C64.4643529,2.43741176 119.999647,43.968 119.999647,86.1832941 C119.999647,119.268 93.0843529,146.183294 59.9996471,146.183294" id="Fill-1" fill="#0B0B4E" mask="url(#mask-2)"></path>
            </g>
            <path d="M65.288,84.206 C66.8080076,84.6366688 67.9923291,85.4219943 68.841,86.562 C69.6896709,87.7020057 70.114,89.0826586 70.114,90.704 C70.114,93.0600118 69.1830093,94.9156599 67.321,96.271 C65.4589907,97.6263401 62.9193494,98.304 59.702,98.304 C57.8019905,98.304 55.9780087,98.0443359 54.23,97.525 C52.4819913,97.0056641 51.0886719,96.3153376 50.05,95.454 L52.216,90.514 C54.5973452,92.110008 56.9786548,92.908 59.36,92.908 C60.8800076,92.908 61.9629968,92.6800023 62.609,92.224 C63.2550032,91.7679977 63.578,91.0080053 63.578,89.944 C63.578,88.9559951 63.2613365,88.2466688 62.628,87.816 C61.9946635,87.3853312 60.9560072,87.17 59.512,87.17 L55.37,87.17 L55.37,81.774 L58.828,81.774 C60.2213403,81.774 61.2346635,81.5713354 61.868,81.166 C62.5013365,80.7606646 62.818,80.1146711 62.818,79.228 C62.818,78.290662 62.5203363,77.5623359 61.925,77.043 C61.3296637,76.5236641 60.4873388,76.264 59.398,76.264 C58.3339947,76.264 57.2066726,76.4729979 56.016,76.891 C54.8253274,77.3090021 53.6853388,77.8979962 52.596,78.658 L50.43,73.718 C51.4940053,72.8566624 52.893658,72.1663359 54.629,71.647 C56.364342,71.1276641 58.1313243,70.868 59.93,70.868 C61.8300095,70.868 63.4956595,71.171997 64.927,71.78 C66.3583405,72.388003 67.4666627,73.2493278 68.252,74.364 C69.0373373,75.4786722 69.43,76.7706593 69.43,78.24 C69.43,79.6586738 69.0690036,80.8873281 68.347,81.926 C67.6249964,82.9646719 66.6053399,83.7246643 65.288,84.206 Z" id="3" fill="#0B0B4E"></path>
        </g>
    </g>
</svg>