<?xml version="1.0" encoding="UTF-8"?>
<svg width="120px" height="120px" viewBox="0 0 120 120" version="1.1" xmlns="http://www.w3.org/2000/svg" xmlns:xlink="http://www.w3.org/1999/xlink">
    <!-- Generator: Sketch 48.1 (47250) - http://www.bohemiancoding.com/sketch -->
    <title>Group 3</title>
    <desc>Created with Sketch.</desc>
    <defs></defs>
    <g id="01Landing" stroke="none" stroke-width="1" fill="none" fill-rule="evenodd" transform="translate(-300.000000, -3042.000000)">
        <g id="Group-3" transform="translate(300.000000, 3042.000000)" fill="#0B0B4E">
            <path d="M21,6 C12.729,6 6,12.729 6,21 L6,99 C6,107.271 12.729,114 21,114 L99,114 C107.271,114 114,107.271 114,99 L114,21 C114,12.729 107.271,6 99,6 L21,6 Z M99,120 L21,120 C9.423,120 0,110.577 0,99 L0,21 C0,9.423 9.423,0 21,0 L99,0 C110.577,0 120,9.423 120,21 L120,99 C120,110.577 110.577,120 99,120 Z" id="Fill-1"></path>
            <path d="M69.209,66.452 L69.209,72 L50.323,72 L50.323,66.832 L59.063,57.75 C60.7350084,56.0019913 61.571,54.3933407 61.571,52.924 C61.571,51.1506578 60.5196772,50.264 58.417,50.264 C57.4036616,50.264 56.3080059,50.4729979 55.13,50.891 C53.9519941,51.3090021 52.7676726,51.8979962 51.577,52.658 L49.411,47.718 C50.4750053,46.8566624 51.8619914,46.1663359 53.572,45.647 C55.2820086,45.1276641 57.0236578,44.868 58.797,44.868 C60.722343,44.868 62.413326,45.1783302 63.87,45.799 C65.3266739,46.4196698 66.4476627,47.2999943 67.233,48.44 C68.0183373,49.5800057 68.411,50.9099924 68.411,52.43 C68.411,53.9753411 68.1006698,55.3876603 67.48,56.667 C66.8593302,57.9463397 65.8016741,59.3713255 64.307,60.942 L58.911,66.452 L69.209,66.452 Z" id="2"></path>
        </g>
    </g>
</svg>