<?xml version="1.0" encoding="UTF-8"?>
<svg width="139px" height="133px" viewBox="0 0 139 133" version="1.1" xmlns="http://www.w3.org/2000/svg" xmlns:xlink="http://www.w3.org/1999/xlink">
    <!-- Generator: Sketch 48.1 (47250) - http://www.bohemiancoding.com/sketch -->
    <title>Group 10</title>
    <desc>Created with Sketch.</desc>
    <defs>
        <polygon id="path-1" points="0 0.000333333333 138.713333 0.000333333333 138.713333 132.356 0 132.356"></polygon>
    </defs>
    <g id="01Landing" stroke="none" stroke-width="1" fill="none" fill-rule="evenodd" transform="translate(-291.000000, -3506.000000)">
        <g id="Group-10" transform="translate(291.000000, 3506.000000)">
            <g id="Page-1">
                <mask id="mask-2" fill="white">
                    <use xlink:href="#path-1"></use>
                </mask>
                <g id="Clip-2"></g>
                <path d="M69.3573333,99.0526667 C70.774,99.0526667 72.1306667,99.496 73.2773333,100.329333 L108.064,125.639333 L94.8206667,84.8293333 C93.9173333,82.066 94.8973333,79.0626667 97.2573333,77.3593333 L132.034,52.2393333 L89.0106667,52.2393333 C86.1106667,52.2393333 83.564,50.386 82.6706667,47.6293333 L69.3573333,6.666 L56.0473333,47.6293333 C55.154,50.386 52.6073333,52.2393333 49.7073333,52.2393333 L6.68066667,52.2393333 L41.464,77.3726667 C43.8206667,79.0793333 44.7973333,82.0826667 43.8973333,84.846 L30.6073333,125.616 L65.4406667,100.322667 C66.5906667,99.4926667 67.944,99.0526667 69.3573333,99.0526667 M108.104,132.356 C106.704,132.356 105.350667,131.909333 104.190667,131.066 L69.3573333,105.719333 L34.5206667,131.012667 C31.5873333,133.136 27.2806667,132.399333 25.1873333,129.509333 C23.9306667,127.779333 23.5973333,125.609333 24.2673333,123.552667 L37.5573333,82.7793333 L2.77733333,57.6426667 C0.387333333,55.9193333 -0.569333333,52.9926667 0.337333333,50.1893333 C1.244,47.3826667 3.734,45.5726667 6.68066667,45.5726667 L49.7073333,45.5726667 L63.0173333,4.60933333 C63.9273333,1.80933333 66.4173333,-0.000666666667 69.3573333,-0.000666666667 C72.3006667,-0.000666666667 74.7906667,1.80933333 75.7006667,4.60933333 L89.0106667,45.5726667 L132.034,45.5726667 C134.980667,45.5726667 137.470667,47.3826667 138.377333,50.1893333 C139.284,52.9926667 138.327333,55.9193333 135.937333,57.6426667 L101.157333,82.766 L114.450667,123.609333 C115.120667,125.666 114.787333,127.839333 113.534,129.566 C112.267333,131.312667 110.237333,132.356 108.104,132.356" id="Fill-1" fill="#0B0B4E" mask="url(#mask-2)"></path>
            </g>
            <path d="M79.33,74.158 L79.33,79.478 L75.834,79.478 L75.834,84 L69.032,84 L69.032,79.478 L58.24,79.478 L58.24,74.31 L70.248,57.21 L75.834,57.21 L75.834,74.158 L79.33,74.158 Z M64.472,74.158 L69.032,74.158 L69.032,67.584 L64.472,74.158 Z" id="4" fill="#0B0B4E"></path>
        </g>
    </g>
</svg>