<?xml version="1.0" encoding="UTF-8"?>
<svg width="346px" height="346px" viewBox="0 0 346 346" version="1.1" xmlns="http://www.w3.org/2000/svg" xmlns:xlink="http://www.w3.org/1999/xlink">
    <!-- Generator: Sketch 48.1 (47250) - http://www.bohemiancoding.com/sketch -->
    <title>Group 13</title>
    <desc>Created with Sketch.</desc>
    <defs></defs>
    <g id="01Landing" stroke="none" stroke-width="1" fill="none" fill-rule="evenodd" transform="translate(-923.000000, -1752.000000)">
        <g id="Group-13" transform="translate(926.000000, 1755.000000)">
            <g id="Group-2" transform="translate(80.000000, 100.000000)" fill-rule="nonzero">
                <path d="M163.478261,29.7391304 L164.113043,24.4 L160.817391,25.0086957 L153.913043,26.2869565 C151.66087,26.7043478 148.008696,22.573913 146.304348,21.4347826 C138.556522,16.2608696 130.434783,11.4782609 121.582609,8.33043478 C112.121739,4.96521739 103.46087,5.47826087 93.6869565,4.85217391 C86.7304348,4.42608696 79.5043478,0.643478261 72.5130435,0.852173913 C70.0956522,1.16521739 67.3478261,9.35652174 66.026087,11.4 C59.8131945,20.7611627 52.6028789,29.4205389 44.5217391,37.226087 L33.0956522,48.4608696 L41.2173913,46.5217391 L42.8869565,45.0782609 C38.6869565,56.7478261 37.3391304,68.2086957 40.7913043,80.7304348 L35.3130435,81.6 L31.8869565,82.1391304 L26.5652174,83.0086957 L17.2695652,87.4434783 L9.68695652,91.0608696 L0,95.6521739 C10.7043478,98.3913043 21.573913,100.730435 32.0173913,104.347826 L32.0695652,104.417391 L34.2869565,107.026087 L35.1565217,108.06087 L35.2347826,109.104348 C35.6347826,113.985507 36.0318841,118.863768 36.426087,123.73913 L42.2869565,120.391304 L37.6347826,127.930435 L38.0869565,130.843478 L38.7130435,134.930435 L39.4869565,139.965217 L42.3652174,135.182609 L54.0869565,115.765217 L56.3130435,112.06087 L57.3913043,108.834783 C67.826087,118.930435 81.1130435,124.043478 95.5217391,125.086957 L91.1043478,127.530435 L88.5565217,130.930435 C94.8173913,128.469565 100.869565,125.4 107.582609,124.6 C121.586309,122.94991 134.585055,116.496632 144.365217,106.33913 L142.626087,117.973913 L145.295652,114.313043 L151.756522,105.46087 L153.33913,94.373913 C155.469565,89.9565217 155.469565,89.9565217 156.669565,87.5130435 C158.063533,84.4989304 159.189614,81.3680189 160.034783,78.1565217 C162.13913,70.4608696 162.321739,62.826087 162.313043,54.9217391 C162.313043,51.6956522 161.330435,46.5826087 162.4,43.5478261 L166.565217,31.6521739 L167.095652,30.1478261 L166.069565,27.5391304 L163.478261,29.7391304 Z" id="Shape" fill="#E5EEFA"></path>
                <path d="M83.973913,34.5565217 C83.6764467,34.7244435 83.3532386,34.8419737 83.0173913,34.9043478 C76.9304348,36.2086957 79.7652174,44.3913043 84.6869565,45.0086957 C87.2956522,45.3304348 91.0086957,43.3913043 90.2782609,40.3217391 C90.0608696,39.4521739 89.1652174,38.2521739 89.5913043,37.2869565 C90.0173913,36.3217391 90.8521739,37.1304348 91.1217391,37.7130435 C92.0807482,39.8138942 92.0165722,42.2397501 90.9478261,44.2869565 C88.0782609,48.9304348 81.2608696,47.0956522 78.4695652,43.4173913 C76.9710774,41.6028462 76.6527977,39.0870819 77.6521739,36.9565217 C78.6608696,34.9652174 80.6695652,33.773913 82.6782609,32.9826087 C83.4347826,32.6782609 84.7565217,32.9826087 84.4173913,34.0608696 C84.3304464,34.2718464 84.1739608,34.4467422 83.973913,34.5565217 Z" id="Shape" fill="#161643" opacity="0.2" style="mix-blend-mode: multiply;"></path>
                <path d="M76.8173913,85.7043478 C76.6663252,85.8009666 76.5061362,85.8825174 76.3391304,85.9478261 C74.3826087,86.8173913 73.8434783,89.426087 74.7043478,91.2782609 C75.3564779,92.7462315 76.8110895,93.693262 78.4173913,93.6956522 C79.7459435,93.7290059 81.0272484,93.2019667 81.9478261,92.2434783 C83.3217391,90.5826087 81.0782609,89.5652174 81.6347826,87.8956522 C81.8695652,87.173913 82.6521739,87.7391304 82.9130435,88.2347826 C84.2868458,90.8156286 83.3293805,94.0213927 80.7652174,95.426087 C78.1565217,96.7391304 74.7565217,95.6086957 72.9391304,93.426087 C71.58238,91.9130067 71.1439521,89.787296 71.7913043,87.8608696 C72.5734729,86.2330985 73.9580047,84.9732994 75.6521739,84.3478261 C76.1207406,84.1044229 76.694915,84.2120806 77.0434783,84.6086957 C77.2324072,84.9520521 77.168311,85.3793599 76.8869565,85.6521739 L76.8173913,85.7043478 Z" id="Shape" fill="#161643" opacity="0.2" style="mix-blend-mode: multiply;"></path>
                <path d="M103.347826,103.982609 C103.216538,104.032799 103.079056,104.064976 102.93913,104.078261 C101.556522,104.2 100.86087,105.817391 100.921739,107.008696 C101.138192,108.446397 102.26004,109.578795 103.695652,109.808696 C104.571323,109.919932 105.428243,109.4949 105.869565,108.730435 C106.102763,108.383877 106.224155,107.974179 106.217391,107.556522 C106.217391,107.052174 105.947826,106.504348 106.269565,106.034783 C106.269565,106.034783 106.330435,105.956522 106.382609,105.93913 C106.453449,105.890935 106.546551,105.890935 106.617391,105.93913 C106.88218,106.210748 107.058082,106.556487 107.121739,106.930435 C107.366564,108.337664 106.794033,109.762257 105.643478,110.608696 C104.241049,111.408624 102.482053,111.208098 101.295652,110.113043 C100.816751,109.718218 100.415691,109.237535 100.113043,108.695652 C99.4039087,107.618395 99.3045738,106.250322 99.8506533,105.081924 C100.396733,103.913527 101.509995,103.112191 102.791304,102.965217 C103.126713,102.866243 103.486246,103.010056 103.66087,103.313043 C103.729779,103.441274 103.734054,103.594523 103.672399,103.726395 C103.610744,103.858268 103.49041,103.953258 103.347826,103.982609 Z" id="Shape" fill="#161643" opacity="0.2" style="mix-blend-mode: multiply;"></path>
                <path d="M139.017391,87.0956522 C138.756522,87.2347826 138.330435,87.2086957 138.078261,87.3652174 C136.469565,88.4173913 137.513043,90.8434783 139.086957,91.2956522 C139.47268,91.4023236 139.886197,91.3111546 140.191304,91.0521739 C140.965217,90.4 140.6,89.3130435 140.547826,88.4434783 C140.547826,88.1913043 140.286957,87.373913 140.686957,87.2608696 C140.782609,87.2608696 140.878261,87.3130435 140.947826,87.3913043 C141.318861,87.9659561 141.529055,88.6295694 141.556522,89.3130435 C141.730435,90.4434783 141.556522,91.6347826 140.365217,92.1391304 C138.095652,93.1304348 135.617391,90.2 136.408696,88.0521739 C136.796704,87.1452467 137.612629,86.4925063 138.582609,86.3130435 C138.84083,86.237164 139.115458,86.3633445 139.226087,86.6086957 C139.262022,86.7331223 139.232572,86.8672818 139.147826,86.9652174 C139.116225,87.0191402 139.071314,87.0640509 139.017391,87.0956522 Z" id="Shape" fill="#161643" opacity="0.2" style="mix-blend-mode: multiply;"></path>
                <path d="M124.026087,77.7478261 C123.918826,77.7814737 123.807862,77.8019144 123.695652,77.8086957 C122.373913,77.8608696 121.321739,78.0347826 120.46087,79.1391304 C119.350163,80.6593431 119.37139,82.7289754 120.513043,84.226087 C121.530435,85.7652174 123.521739,87.5826087 125.486957,86.7826087 C126.874213,86.2459784 127.999423,85.1924579 128.626087,83.8434783 C128.721739,83.5826087 128.791304,83.2782609 129.026087,83.1391304 C129.319903,82.9958397 129.674487,83.1064088 129.834783,83.3913043 C130.434783,84.4434783 129.286957,85.4869565 128.547826,86.0782609 C126.930435,87.3652174 124.73913,88.5130435 122.634783,87.9826087 C119.008696,87.0608696 116.495652,82.1565217 118.695652,78.8695652 C119.802943,77.4498676 121.417539,76.5147733 123.2,76.2608696 C123.712921,76.1282899 124.250341,76.3611719 124.504348,76.826087 C124.58109,77.0110936 124.572138,77.2205593 124.479891,77.3983437 C124.387644,77.5761282 124.221536,77.7040508 124.026087,77.7478261 Z" id="Shape" fill="#161643" opacity="0.2" style="mix-blend-mode: multiply;"></path>
                <circle id="Oval" fill="#FFFFFF" cx="137.513043" cy="33.8086957" r="7.49565217"></circle>
                <circle id="Oval" fill="#161643" cx="137.513043" cy="33.8086957" r="4.4173913"></circle>
                <path d="M80.9217391,113.13913 C80.5969117,114.825393 79.2626117,116.13476 77.5705231,116.427725 C75.8784345,116.720691 74.1815949,115.936131 73.308756,114.457231 C72.4359171,112.978331 72.5691881,111.113649 73.6434783,109.773913 C71.9913043,108.904348 70.3217391,107.93913 68.6521739,106.895652 C68.0319004,107.90625 66.9060357,108.493757 65.7222884,108.424547 C64.5385411,108.355336 63.4888135,107.640628 62.9905376,106.564631 C62.4922617,105.488635 62.6262152,104.225784 63.3391304,103.278261 C54.8153256,96.8560999 47.2266167,89.2790976 40.7913043,80.7652174 L35.3130435,81.6347826 L31.8869565,82.173913 L26.5652174,83.0434783 L17.2695652,87.4782609 L9.68695652,91.0956522 L0,95.6521739 C10.7043478,98.3913043 21.573913,100.730435 32.0173913,104.347826 L32.0695652,104.417391 L34.2869565,107.026087 L35.1565217,108.06087 C35.1565217,108.06087 35.2347826,109.06087 35.2347826,109.104348 C35.6347826,113.985507 36.0318841,118.863768 36.426087,123.73913 L42.2869565,120.391304 L37.6347826,127.930435 L38.0869565,130.843478 L38.7130435,134.930435 L39.4869565,139.965217 L42.3652174,135.182609 L54.0869565,115.765217 L56.3130435,112.06087 L57.3913043,108.834783 C67.826087,118.930435 81.1130435,124.043478 95.5217391,125.086957 L91.1043478,127.530435 L88.573913,130.904348 C94.8173913,128.443478 100.86087,125.382609 107.556522,124.591304 C121.560222,122.941214 134.558968,116.487936 144.33913,106.330435 C144.33913,106.330435 115.73913,126.956522 80.9217391,113.13913 Z" id="Shape" fill="#161643" opacity="0.2" style="mix-blend-mode: multiply;"></path>
            </g>
            <circle id="Oval-2" stroke="#FBCE0E" stroke-width="5" stroke-dasharray="10" cx="170" cy="170" r="150"></circle>
            <circle id="Oval-2" stroke="#FBCE0E" stroke-width="5" stroke-dasharray="10" cx="170" cy="170" r="170"></circle>
        </g>
    </g>
</svg>