<?xml version="1.0" encoding="utf-8"?>
<!-- Generator: Adobe Illustrator 22.0.1, SVG Export Plug-In . SVG Version: 6.00 Build 0)  -->
<svg version="1.1" id="Layer_1" xmlns="http://www.w3.org/2000/svg" xmlns:xlink="http://www.w3.org/1999/xlink" x="0px" y="0px"
	 width="173px" height="144px" viewBox="0 0 173 144" style="enable-background:new 0 0 173 144;" xml:space="preserve">
<style type="text/css">
	.st0{fill:#E5EEFA;}
	.st1{fill:#BBC3D5;}
	.st2{fill:#FFFFFF;}
	.st3{fill:#161643;}
</style>
<g>
	<path class="st0" d="M168,30.5l0.7-5.5c0,0-3.4,0.6-3.4,0.6c0,0-7,1.3-7,1.3c-2.3,0.4-6-3.8-7.8-5c-7.9-5.3-16.3-10.2-25.3-13.4
		c-9.7-3.4-18.5-2.9-28.5-3.5C89.6,4.7,82.2,0.8,75.1,1c-2.5,0.3-5.3,8.7-6.6,10.8c-6.1,9.5-13.9,18.4-22,26.4
		c0,0-11.7,11.5-11.7,11.5l8.3-2l1.7-1.5c-4.3,11.9-5.7,23.6-2.1,36.5l-5.6,0.9l-3.5,0.5l-5.4,0.9l-9.5,4.5l-7.8,3.7
		c0,0-9.9,4.7-9.9,4.7c10.9,2.8,22,5.2,32.7,8.9l0.1,0.1l2.3,2.7l0.9,1.1c0,0,0.1,1,0.1,1.1c0.4,5,0.8,10,1.2,15c2-1.1,4-2.3,6-3.4
		l-4.8,7.7l0.5,3l0.6,4.2l0.8,5.1c0,0,2.8-4.7,2.9-4.9c4-6.6,8-13.2,12-19.9l2.3-3.8l1.1-3.3c10.7,10.3,24.2,15.5,39,16.6l-4.5,2.5
		c0,0-2.6,3.5-2.6,3.5c6.4-2.5,12.6-5.7,19.4-6.5c14.3-1.7,27.6-8.3,37.6-18.6l-1.7,11.9c0,0,2.7-3.7,2.7-3.7l6.6-9
		c0,0,1.6-11.3,1.6-11.3c2.2-4.5,2.2-4.5,3.4-7c1.4-2.8,2.6-6.6,3.4-9.6c2.1-7.9,2.3-15.7,2.3-23.7c0-3.3-1-8.5,0.1-11.6
		c0,0,4.3-12.1,4.3-12.1l0.5-1.5l-1-2.7L168,30.5z"/>
	<path class="st1" d="M86.8,35.4c-0.3,0.2-0.7,0.3-1,0.4c-6.2,1.3-3.3,9.7,1.7,10.3c2.7,0.3,6.5-1.7,5.7-4.8
		c-0.2-0.9-1.1-2.1-0.7-3.1c0.4-0.8,1.3-0.2,1.6,0.4c0.9,2,1,4.8-0.2,6.7c-2.9,4.7-9.9,2.9-12.8-0.9c-1.4-1.9-1.9-4.4-0.8-6.6
		c1-2,3.1-3.3,5.1-4.1c0.8-0.3,2.1,0,1.8,1.1C87.2,35.1,87,35.3,86.8,35.4z"/>
	<path class="st1" d="M79.5,87.7c-0.1,0.1-0.3,0.2-0.5,0.2c-2,0.9-2.5,3.6-1.7,5.5c0.7,1.5,2.1,2.5,3.8,2.5c1.3,0,2.8-0.5,3.6-1.5
		c1.4-1.7-0.9-2.7-0.3-4.4c0.2-0.7,1-0.2,1.3,0.3c1.3,2.6,0.5,6-2.2,7.4c-2.7,1.3-6.1,0.2-8-2c-1.3-1.6-1.9-3.8-1.2-5.7
		c0.7-1.8,2.3-2.9,3.9-3.6c0.4-0.2,1.1-0.2,1.4,0.3C79.9,86.9,79.9,87.4,79.5,87.7C79.5,87.7,79.5,87.7,79.5,87.7z"/>
	<path class="st1" d="M106.6,106.4c-0.1,0.1-0.3,0.1-0.4,0.1c-1.4,0.1-2.1,1.8-2.1,3c0.1,1.4,1.4,2.6,2.8,2.9
		c0.9,0.2,1.8-0.4,2.2-1.1c0.2-0.4,0.4-0.8,0.3-1.2c0-0.5-0.3-1.1,0.1-1.6c0,0,0.1-0.1,0.1-0.1c0.1,0,0.2,0,0.2,0
		c0.3,0.2,0.5,0.7,0.5,1c0.2,1.3-0.3,2.9-1.5,3.8c-1.4,1-3.2,0.5-4.4-0.5c0,0,0,0,0,0c-0.5-0.4-0.9-0.9-1.2-1.4
		c-0.6-1-0.8-2.3-0.4-3.5c0.5-1.3,1.8-2,3.1-2.4c0.3-0.1,0.8,0,0.9,0.4C107,106.1,106.9,106.3,106.6,106.4z"/>
	<path class="st1" d="M143.1,89.1c-0.3,0.1-0.7,0.1-1,0.3c-1.6,1.1-0.6,3.6,1,4c0.4,0.1,0.8,0,1.1-0.3c0.8-0.7,0.4-1.8,0.4-2.7
		c0-0.3-0.3-1.1,0.1-1.2c0.1,0,0.2,0.1,0.3,0.1c0.5,0.5,0.5,1.3,0.6,2c0.2,1.2,0,2.4-1.2,2.9c-2.3,1-4.8-2-4-4.2
		c0.4-1,1.3-1.5,2.2-1.7c0.2-0.1,0.6,0,0.7,0.3c0,0.1,0,0.3-0.1,0.4C143.2,89.1,143.1,89.1,143.1,89.1z"/>
	<path class="st1" d="M127.7,79.6c-0.1,0-0.2,0.1-0.3,0.1c-1.4,0.1-2.4,0.2-3.3,1.4c-1.2,1.6-1,3.6,0.1,5.2c1,1.6,3.1,3.4,5.1,2.6
		c1.2-0.5,2.8-1.7,3.2-3c0.1-0.3,0.2-0.6,0.4-0.7c0.3-0.2,0.7,0,0.8,0.3c0.6,1.1-0.6,2.1-1.3,2.7c-1.6,1.3-3.9,2.5-6,1.9
		c-3.7-0.9-6.3-5.9-4-9.3c1.1-1.6,2.9-2.3,4.6-2.7c0.5-0.1,1.2,0.1,1.3,0.6C128.4,79.1,128.1,79.4,127.7,79.6z"/>
	<circle class="st2" cx="141.5" cy="34.7" r="7.7"/>
	<circle class="st3" cx="141.5" cy="34.7" r="4.5"/>
	<path class="st1" d="M83.7,115.7c-0.3,1.3-1.2,2.5-2.5,3.1c-2.2,0.9-4.6-0.1-5.5-2.3c-0.6-1.5-0.3-3.1,0.6-4.3
		c-1.7-0.9-3.4-1.9-5.1-2.9c-0.3,0.6-0.9,1.1-1.6,1.4c-1.7,0.7-3.6-0.1-4.3-1.8c-0.5-1.1-0.3-2.4,0.4-3.3c-7.6-5.6-15.4-13.1-23-23
		l-5.6,0.9l-3.5,0.5l-5.4,0.9l-9.5,4.5l-7.8,3.7L1,97.9c10.9,2.8,22,5.2,32.7,8.9l0.1,0.1l2.3,2.7l0.9,1.1c0,0,0.1,1,0.1,1.1
		c0.4,5,0.8,10,1.2,15c2-1.1,4-2.3,6-3.4l-4.8,7.7l0.5,3l0.6,4.2l0.8,5.1c0,0,2.8-4.7,2.9-4.9c4-6.6,8-13.2,12-19.9l2.3-3.8l1.1-3.3
		c10.7,10.3,24.2,15.5,39,16.6l-4.5,2.5c0,0-2.4,3.2-2.6,3.4l0,0c6.4-2.5,12.6-5.6,19.4-6.4c14.3-1.7,27.6-8.3,37.6-18.6
		C148.5,108.8,119.3,129.9,83.7,115.7z"/>
</g>
</svg>
